<svg width="40" height="40" viewBox="0 0 40 40" fill="none" xmlns="http://www.w3.org/2000/svg">
<path d="M2.5 33C2.5 30.6794 3.42187 28.4538 5.06282 26.8128C6.70376 25.1719 8.92936 24.25 11.25 24.25H28.75C31.0706 24.25 33.2962 25.1719 34.9372 26.8128C36.5781 28.4538 37.5 30.6794 37.5 33C37.5 34.1603 37.0391 35.2731 36.2186 36.0936C35.3981 36.9141 34.2853 37.375 33.125 37.375H6.875C5.71468 37.375 4.60188 36.9141 3.78141 36.0936C2.96094 35.2731 2.5 34.1603 2.5 33Z" stroke="#FFDD00" stroke-width="4" stroke-linejoin="round"/>
<path d="M20 15.5C23.6244 15.5 26.5625 12.5619 26.5625 8.9375C26.5625 5.31313 23.6244 2.375 20 2.375C16.3756 2.375 13.4375 5.31313 13.4375 8.9375C13.4375 12.5619 16.3756 15.5 20 15.5Z" stroke="#FFDD00" stroke-width="4"/>
</svg>
