<svg width="35" height="36" viewBox="0 0 35 36" fill="none" xmlns="http://www.w3.org/2000/svg">
<path d="M17.4998 10.7234C19.408 10.7234 21.238 11.4766 22.5873 12.8173C23.9366 14.158 24.6946 15.9763 24.6946 17.8723C24.6946 19.7684 23.9366 21.5867 22.5873 22.9274C21.238 24.2681 19.408 25.0213 17.4998 25.0213C15.5916 25.0213 13.7616 24.2681 12.4123 22.9274C11.063 21.5867 10.305 19.7684 10.305 17.8723C10.305 15.9763 11.063 14.158 12.4123 12.8173C13.7616 11.4766 15.5916 10.7234 17.4998 10.7234ZM17.4998 14.2979C16.5457 14.2979 15.6307 14.6745 14.9561 15.3448C14.2814 16.0152 13.9024 16.9243 13.9024 17.8723C13.9024 18.8203 14.2814 19.7295 14.9561 20.3999C15.6307 21.0702 16.5457 21.4468 17.4998 21.4468C18.4539 21.4468 19.3689 21.0702 20.0436 20.3999C20.7182 19.7295 21.0972 18.8203 21.0972 17.8723C21.0972 16.9243 20.7182 16.0152 20.0436 15.3448C19.3689 14.6745 18.4539 14.2979 17.4998 14.2979ZM13.9024 35.7447C13.4527 35.7447 13.075 35.423 13.0031 34.994L12.3376 30.2579C11.2044 29.8111 10.2331 29.2034 9.29775 28.4885L4.81898 30.2936C4.42326 30.4366 3.93761 30.2936 3.72177 29.9004L0.124363 23.7166C0.0142748 23.5324 -0.0245354 23.3148 0.0151904 23.1042C0.0549162 22.8937 0.170458 22.7048 0.340208 22.5728L4.13547 19.606L4.00956 17.8723L4.13547 16.0851L0.340208 13.1719C0.170458 13.0399 0.0549162 12.851 0.0151904 12.6404C-0.0245354 12.4299 0.0142748 12.2122 0.124363 12.0281L3.72177 5.84426C3.93761 5.45106 4.42326 5.29021 4.81898 5.45106L9.29775 7.2383C10.2331 6.54128 11.2044 5.93362 12.3376 5.48681L13.0031 0.750638C13.075 0.321702 13.4527 0 13.9024 0H21.0972C21.5469 0 21.9246 0.321702 21.9966 0.750638L22.6621 5.48681C23.7953 5.93362 24.7666 6.54128 25.7019 7.2383L30.1807 5.45106C30.5764 5.29021 31.062 5.45106 31.2779 5.84426L34.8753 12.0281C35.1091 12.4213 35.0012 12.9038 34.6594 13.1719L30.8642 16.0851L30.9901 17.8723L30.8642 19.6596L34.6594 22.5728C35.0012 22.8409 35.1091 23.3234 34.8753 23.7166L31.2779 29.9004C31.062 30.2936 30.5764 30.4545 30.1807 30.2936L25.7019 28.5064C24.7666 29.2034 23.7953 29.8111 22.6621 30.2579L21.9966 34.994C21.9246 35.423 21.5469 35.7447 21.0972 35.7447H13.9024ZM16.1508 3.57447L15.4853 8.23915C13.3268 8.68596 11.4202 9.82979 10.0352 11.4204L5.70034 9.5617L4.35131 11.8851L8.14658 14.6553C7.4271 16.7404 7.4271 19.0043 8.14658 21.0894L4.33333 23.8774L5.68235 26.2009L10.0532 24.3421C11.4382 25.9149 13.3268 27.0587 15.4673 27.4877L16.1328 32.1702H18.8668L19.5324 27.5055C21.6728 27.0587 23.5615 25.9149 24.9465 24.3421L29.3173 26.2009L30.6663 23.8774L26.8531 21.1072C27.5726 19.0162 27.5726 16.7464 26.8531 14.6553L30.6483 11.8851L29.2993 9.5617L24.9644 11.4204C23.5511 9.79462 21.6338 8.6818 19.5144 8.25702L18.8489 3.57447H16.1508Z" fill="#FFDD00"/>
</svg>
