<svg width="36" height="36" viewBox="0 0 36 36" fill="none" xmlns="http://www.w3.org/2000/svg">
<path d="M10.2223 12.0417C9.70658 12.0417 9.212 12.2466 8.84735 12.6113C8.48269 12.9759 8.27783 13.4705 8.27783 13.9862C8.27783 14.5019 8.48269 14.9965 8.84735 15.3611C9.212 15.7258 9.70658 15.9306 10.2223 15.9306H25.7778C26.2935 15.9306 26.7881 15.7258 27.1528 15.3611C27.5174 14.9965 27.7223 14.5019 27.7223 13.9862C27.7223 13.4705 27.5174 12.9759 27.1528 12.6113C26.7881 12.2466 26.2935 12.0417 25.7778 12.0417H10.2223Z" fill="#FFDD00"/>
<path fill-rule="evenodd" clip-rule="evenodd" d="M6.33333 0.375C4.78624 0.375 3.30251 0.989582 2.20854 2.08354C1.11458 3.17751 0.5 4.66124 0.5 6.20833V29.5417C0.5 31.0888 1.11458 32.5725 2.20854 33.6665C3.30251 34.7604 4.78624 35.375 6.33333 35.375H29.6667C31.2138 35.375 32.6975 34.7604 33.7915 33.6665C34.8854 32.5725 35.5 31.0888 35.5 29.5417V6.20833C35.5 4.66124 34.8854 3.17751 33.7915 2.08354C32.6975 0.989582 31.2138 0.375 29.6667 0.375H6.33333ZM4.38889 29.5417V8.15278H31.6111V29.5417C31.6111 30.0574 31.4063 30.5519 31.0416 30.9166C30.6769 31.2813 30.1824 31.4861 29.6667 31.4861H6.33333C5.81763 31.4861 5.32306 31.2813 4.9584 30.9166C4.59375 30.5519 4.38889 30.0574 4.38889 29.5417Z" fill="#FFDD00"/>
</svg>
