<svg width="35" height="36" viewBox="0 0 35 36" fill="none" xmlns="http://www.w3.org/2000/svg">
<path d="M9.72228 12.0417C9.20658 12.0417 8.712 12.2466 8.34735 12.6113C7.98269 12.9759 7.77783 13.4705 7.77783 13.9862C7.77783 14.5019 7.98269 14.9965 8.34735 15.3611C8.712 15.7258 9.20658 15.9306 9.72228 15.9306H25.2778C25.7935 15.9306 26.2881 15.7258 26.6528 15.3611C27.0174 14.9965 27.2223 14.5019 27.2223 13.9862C27.2223 13.4705 27.0174 12.9759 26.6528 12.6113C26.2881 12.2466 25.7935 12.0417 25.2778 12.0417H9.72228Z" fill="white"/>
<path fill-rule="evenodd" clip-rule="evenodd" d="M5.83333 0.375C4.28624 0.375 2.80251 0.989582 1.70854 2.08354C0.614582 3.17751 0 4.66124 0 6.20833V29.5417C0 31.0888 0.614582 32.5725 1.70854 33.6665C2.80251 34.7604 4.28624 35.375 5.83333 35.375H29.1667C30.7138 35.375 32.1975 34.7604 33.2915 33.6665C34.3854 32.5725 35 31.0888 35 29.5417V6.20833C35 4.66124 34.3854 3.17751 33.2915 2.08354C32.1975 0.989582 30.7138 0.375 29.1667 0.375H5.83333ZM3.88889 29.5417V8.15278H31.1111V29.5417C31.1111 30.0574 30.9063 30.5519 30.5416 30.9166C30.1769 31.2813 29.6824 31.4861 29.1667 31.4861H5.83333C5.31763 31.4861 4.82306 31.2813 4.4584 30.9166C4.09375 30.5519 3.88889 30.0574 3.88889 29.5417Z" fill="white"/>
</svg>
