<svg width="39" height="40" viewBox="0 0 39 40" fill="none" xmlns="http://www.w3.org/2000/svg">
<path d="M2 33C2 30.6794 2.92187 28.4538 4.56282 26.8128C6.20376 25.1719 8.42936 24.25 10.75 24.25H28.25C30.5706 24.25 32.7962 25.1719 34.4372 26.8128C36.0781 28.4538 37 30.6794 37 33C37 34.1603 36.5391 35.2731 35.7186 36.0936C34.8981 36.9141 33.7853 37.375 32.625 37.375H6.375C5.21468 37.375 4.10188 36.9141 3.28141 36.0936C2.46094 35.2731 2 34.1603 2 33Z" stroke="white" stroke-width="4" stroke-linejoin="round"/>
<path d="M19.5 15.5C23.1244 15.5 26.0625 12.5619 26.0625 8.9375C26.0625 5.31313 23.1244 2.375 19.5 2.375C15.8756 2.375 12.9375 5.31313 12.9375 8.9375C12.9375 12.5619 15.8756 15.5 19.5 15.5Z" stroke="white" stroke-width="4"/>
</svg>
