<svg width="36" height="36" viewBox="0 0 36 36" fill="none" xmlns="http://www.w3.org/2000/svg">
<path d="M17.9998 10.7234C19.908 10.7234 21.738 11.4766 23.0873 12.8173C24.4366 14.158 25.1946 15.9763 25.1946 17.8723C25.1946 19.7684 24.4366 21.5867 23.0873 22.9274C21.738 24.2681 19.908 25.0213 17.9998 25.0213C16.0916 25.0213 14.2616 24.2681 12.9123 22.9274C11.563 21.5867 10.805 19.7684 10.805 17.8723C10.805 15.9763 11.563 14.158 12.9123 12.8173C14.2616 11.4766 16.0916 10.7234 17.9998 10.7234ZM17.9998 14.2979C17.0457 14.2979 16.1307 14.6745 15.4561 15.3448C14.7814 16.0152 14.4024 16.9243 14.4024 17.8723C14.4024 18.8203 14.7814 19.7295 15.4561 20.3999C16.1307 21.0702 17.0457 21.4468 17.9998 21.4468C18.9539 21.4468 19.8689 21.0702 20.5436 20.3999C21.2182 19.7295 21.5972 18.8203 21.5972 17.8723C21.5972 16.9243 21.2182 16.0152 20.5436 15.3448C19.8689 14.6745 18.9539 14.2979 17.9998 14.2979ZM14.4024 35.7447C13.9527 35.7447 13.575 35.423 13.5031 34.994L12.8376 30.2579C11.7044 29.8111 10.7331 29.2034 9.79775 28.4885L5.31898 30.2936C4.92326 30.4366 4.43761 30.2936 4.22177 29.9004L0.624363 23.7166C0.514275 23.5324 0.475465 23.3148 0.51519 23.1042C0.554916 22.8937 0.670458 22.7048 0.840208 22.5728L4.63547 19.606L4.50956 17.8723L4.63547 16.0851L0.840208 13.1719C0.670458 13.0399 0.554916 12.851 0.51519 12.6404C0.475465 12.4299 0.514275 12.2122 0.624363 12.0281L4.22177 5.84426C4.43761 5.45106 4.92326 5.29021 5.31898 5.45106L9.79775 7.2383C10.7331 6.54128 11.7044 5.93362 12.8376 5.48681L13.5031 0.750638C13.575 0.321702 13.9527 0 14.4024 0H21.5972C22.0469 0 22.4246 0.321702 22.4966 0.750638L23.1621 5.48681C24.2953 5.93362 25.2666 6.54128 26.2019 7.2383L30.6807 5.45106C31.0764 5.29021 31.562 5.45106 31.7779 5.84426L35.3753 12.0281C35.6091 12.4213 35.5012 12.9038 35.1594 13.1719L31.3642 16.0851L31.4901 17.8723L31.3642 19.6596L35.1594 22.5728C35.5012 22.8409 35.6091 23.3234 35.3753 23.7166L31.7779 29.9004C31.562 30.2936 31.0764 30.4545 30.6807 30.2936L26.2019 28.5064C25.2666 29.2034 24.2953 29.8111 23.1621 30.2579L22.4966 34.994C22.4246 35.423 22.0469 35.7447 21.5972 35.7447H14.4024ZM16.6508 3.57447L15.9853 8.23915C13.8268 8.68596 11.9202 9.82979 10.5352 11.4204L6.20034 9.5617L4.85131 11.8851L8.64658 14.6553C7.9271 16.7404 7.9271 19.0043 8.64658 21.0894L4.83333 23.8774L6.18235 26.2009L10.5532 24.3421C11.9382 25.9149 13.8268 27.0587 15.9673 27.4877L16.6328 32.1702H19.3668L20.0324 27.5055C22.1728 27.0587 24.0615 25.9149 25.4465 24.3421L29.8173 26.2009L31.1663 23.8774L27.3531 21.1072C28.0726 19.0162 28.0726 16.7464 27.3531 14.6553L31.1483 11.8851L29.7993 9.5617L25.4644 11.4204C24.0511 9.79462 22.1338 8.6818 20.0144 8.25702L19.3489 3.57447H16.6508Z" fill="white"/>
</svg>
